<?xml version="1.0" encoding="UTF-8"?>
<svg id="_圖層_2" data-name="圖層 2" xmlns="http://www.w3.org/2000/svg" xmlns:xlink="http://www.w3.org/1999/xlink" viewBox="0 0 513 207.28">
  <defs>
    <style>
      .cls-1 {
        fill: url(#_未命名漸層_63);
      }

      .cls-1, .cls-2, .cls-3, .cls-4 {
        stroke-width: 0px;
      }

      .cls-2 {
        fill: #636b70;
      }

      .cls-3 {
        fill: #9bb0b0;
      }

      .cls-4 {
        fill: #fff;
      }
    </style>
    <linearGradient id="_未命名漸層_63" data-name="未命名漸層 63" x1="89.8" y1="10.98" x2="89.8" y2="190.5" gradientUnits="userSpaceOnUse">
      <stop offset="0" stop-color="#ffa774"/>
      <stop offset="1" stop-color="red"/>
    </linearGradient>
  </defs>
  <g id="_圖層_1-2" data-name="圖層 1">
    <g>
      <g>
        <path class="cls-1" d="m89.85,0L.1,51.82v103.64l89.75,51.82,89.75-51.82V51.82L89.85,0Zm-.1.01L0,51.83v103.64l89.75,51.82,89.75-51.82V51.83L89.75.01Z"/>
        <polygon class="cls-4" points="89.8 178.59 42.89 151.51 9.02 151.51 25.96 122.18 25.96 68.01 72.87 40.93 89.8 11.6 106.73 40.93 153.64 68.01 153.64 122.18 170.58 151.51 136.71 151.51 89.8 178.59"/>
        <polygon class="cls-3" points="89.8 55.45 134.68 133.17 44.92 133.17 89.8 55.45"/>
      </g>
      <g>
        <path class="cls-2" d="m230.29,80.27c.25-.25.52-.37.82-.37h73.49c.3,0,.57.13.82.37.25.25.37.52.37.82v1.19c0,.3-.13.57-.37.82-.25.25-.52.37-.82.37h-73.49c-.3,0-.57-.12-.82-.37-.25-.25-.37-.52-.37-.82v-1.19c0-.3.12-.57.37-.82Zm1.12,36.9l-.89-.89c-.2-.4-.3-.79-.3-1.19s.2-.65.6-.75c14.31-4.07,24.1-11.23,29.37-21.47,5.27-10.23,8.25-22.01,8.94-35.33h3.58c-.4,8.85-1.64,16.95-3.73,24.3-2.09,7.36-5.99,14.24-11.7,20.65-5.72,6.41-13.79,11.35-24.22,14.83-.7.2-1.24.15-1.64-.15Zm4.62-43.98l-1.19-.89c-.8-.5-.85-1.09-.15-1.79,9.84-11.23,16.94-23.06,21.32-35.48.1-.3.3-.52.6-.67.3-.15.6-.17.89-.07l1.34.45c.4.1.67.32.82.67.15.35.12.72-.07,1.12-5.17,13.32-12.47,25.49-21.91,36.52-.7.5-1.24.55-1.64.15Zm9.99-14.46l1.34-3.73h53.22c.69,0,1.04.4,1.04,1.19v1.34c0,.3-.1.57-.3.82-.2.25-.45.37-.75.37h-54.56Zm10.66,57.39c.25-.2.52-.3.82-.3h81.54c.3,0,.57.1.82.3.25.2.37.45.37.75v54.41c0,.3-.13.54-.37.75-.25.2-.52.3-.82.3h-81.54c-.3,0-.57-.1-.82-.3-.25-.2-.37-.45-.37-.75v-54.41c0-.3.12-.54.37-.75Zm2.16,26.09h80.35v3.73h-80.35v-3.73Zm1.19,26.39h76.47v-49.05h-76.47v49.05Zm26.39-72.67c5.37,4.82,9.54,8.97,12.52,12.45.6.6.6,1.19,0,1.79l-.89.75c-.7.5-1.29.5-1.79,0-2.78-3.28-6.71-7.2-11.78-11.78-5.07-4.57-10.98-9.19-17.74-13.86l1.19-4.02c6.96,4.97,13.12,9.86,18.49,14.68Zm68.65,11.18c-.25.25-.52.37-.82.37h-41c-.4,0-.7-.12-.89-.37-.2-.25-.3-.52-.3-.82v-52.32c0-.3.1-.57.3-.82.2-.25.5-.37.89-.37h41c.3,0,.57.13.82.37.25.25.37.52.37.82v52.32c0,.3-.13.57-.37.82Zm-3.5-3.35v-47.26h-35.78v47.26h35.78Z"/>
        <path class="cls-2" d="m378.99,53.81h132.82c.79,0,1.19.4,1.19,1.19v.75c0,.8-.4,1.19-1.19,1.19h-132.82c-.8,0-1.19-.4-1.19-1.19v-.75c0-.79.4-1.19,1.19-1.19Zm30.86,24.75h1.34c.79,0,1.19.85,1.19,2.53-.1,16.9-1.02,30.59-2.76,41.07-1.74,10.49-4.72,19.65-8.94,27.5-4.23,7.85-10.46,15.65-18.71,23.4-.5.5-1.04.5-1.64,0l-1.19-.89c-.7-.5-.75-1.04-.15-1.64,8.15-8.05,14.29-15.8,18.41-23.26,4.12-7.45,7.03-16.32,8.72-26.61,1.69-10.29,2.53-23.93,2.53-40.92,0-.79.4-1.19,1.19-1.19Zm-25.94,19.08v-1.34c0-.79.4-1.19,1.19-1.19h59.63c.79,0,1.19.4,1.19,1.19l-2.09,61.72c-.1,3.48-1.04,6.48-2.83,9.02-1.79,2.53-4.72,3.8-8.79,3.8h-15.65c-.8,0-1.19-.4-1.19-1.19v-1.34c0-.8.4-1.19,1.19-1.19h13.12c3.58,0,6.06-.89,7.45-2.68,1.39-1.79,2.19-4.82,2.39-9.09l2.38-56.5h-56.8c-.8,0-1.19-.4-1.19-1.19Zm42.19-18.04h-1.49c-.7,0-1.04-.4-1.04-1.19v-43.38c0-.79.35-1.19,1.04-1.19h1.49c.79,0,1.19.4,1.19,1.19v43.38c0,.8-.4,1.19-1.19,1.19Zm35.78,9.24h41.89c1.09,0,1.76.22,2.01.67.25.45.37,1.22.37,2.31v77.52c0,.99-.17,1.69-.52,2.09-.35.4-1.07.6-2.16.6h-41.59c-1.59,0-2.38-1-2.38-2.98v-77.22c0-1.99.79-2.98,2.38-2.98Zm1.34,79.75h39.21v-76.62h-39.21v76.62Zm6.86-89.74h-1.34c-.8,0-1.19-.4-1.19-1.19v-42.34c0-.79.4-1.19,1.19-1.19h1.34c.79,0,1.19.4,1.19,1.19v42.34c0,.8-.4,1.19-1.19,1.19Z"/>
      </g>
    </g>
  </g>
</svg>