<?xml version="1.0" encoding="UTF-8"?>
<svg id="_圖層_2" data-name="圖層 2" xmlns="http://www.w3.org/2000/svg" xmlns:xlink="http://www.w3.org/1999/xlink" viewBox="0 0 234.68 253.44">
  <defs>
    <style>
      .cls-1 {
        fill: url(#_未命名漸層_63);
      }

      .cls-1, .cls-2, .cls-3, .cls-4 {
        stroke-width: 0px;
      }

      .cls-2 {
        fill: #6f7063;
      }

      .cls-3 {
        fill: #9bb0b0;
      }

      .cls-4 {
        fill: #fff;
      }
    </style>
    <linearGradient id="_未命名漸層_63" data-name="未命名漸層 63" x1="117.34" y1="10.98" x2="117.34" y2="190.5" gradientUnits="userSpaceOnUse">
      <stop offset="0" stop-color="#ffa774"/>
      <stop offset="1" stop-color="red"/>
    </linearGradient>
  </defs>
  <g id="_圖層_1-2" data-name="圖層 1">
    <g>
      <g>
        <path class="cls-1" d="m117.39,0L27.64,51.82v103.64l89.75,51.82,89.75-51.82V51.82L117.39,0Zm-.1.01L27.54,51.83v103.64l89.75,51.82,89.75-51.82V51.83L117.29.01Z"/>
        <polygon class="cls-4" points="117.34 178.59 70.43 151.51 36.57 151.51 53.5 122.18 53.5 68.01 100.41 40.93 117.34 11.6 134.28 40.93 181.18 68.01 181.18 122.18 198.12 151.51 164.25 151.51 117.34 178.59"/>
        <polygon class="cls-3" points="117.34 55.45 162.22 133.17 72.47 133.17 117.34 55.45"/>
      </g>
      <g>
        <path class="cls-2" d="m0,228.49v-1.37h19.69v1.37h-9.07v24.34h-1.58v-24.34H0Z"/>
        <path class="cls-2" d="m46.84,239.97c0,1.87-.28,3.63-.83,5.27-.55,1.64-1.35,3.07-2.39,4.28s-2.32,2.17-3.83,2.86c-1.51.7-3.23,1.04-5.15,1.04s-3.64-.35-5.17-1.04c-1.52-.7-2.81-1.65-3.85-2.86s-1.84-2.64-2.39-4.28c-.55-1.64-.83-3.4-.83-5.27s.28-3.63.83-5.27c.55-1.64,1.35-3.07,2.39-4.28s2.33-2.17,3.85-2.86c1.52-.7,3.25-1.04,5.17-1.04s3.64.35,5.15,1.04c1.51.7,2.79,1.65,3.83,2.86s1.84,2.64,2.39,4.28c.55,1.64.83,3.4.83,5.27Zm-22.86,0c0,1.66.24,3.22.72,4.68.48,1.46,1.18,2.74,2.09,3.83s2.03,1.96,3.35,2.61c1.32.65,2.82.97,4.5.97s3.17-.32,4.48-.97c1.31-.65,2.42-1.52,3.33-2.61s1.61-2.37,2.09-3.83c.48-1.46.72-3.02.72-4.68s-.24-3.22-.72-4.68c-.48-1.46-1.18-2.74-2.09-3.83-.91-1.09-2.02-1.96-3.33-2.61-1.31-.65-2.8-.97-4.48-.97s-3.18.32-4.5.97c-1.32.65-2.44,1.52-3.35,2.61-.91,1.09-1.61,2.37-2.09,3.83-.48,1.46-.72,3.02-.72,4.68Z"/>
        <path class="cls-2" d="m53.82,227.12h2.27l10.04,23.94h.07l9.94-23.94h2.27v25.7h-1.58v-23.76h-.07l-9.79,23.76h-1.58l-9.9-23.76h-.07v23.76h-1.58v-25.7Z"/>
        <path class="cls-2" d="m94.18,227.12h1.73l10.15,25.7h-1.69l-3.24-8.24h-12.31l-3.28,8.24h-1.69l10.33-25.7Zm6.44,16.09l-5.51-14.54h-.07l-5.72,14.54h11.3Z"/>
        <path class="cls-2" d="m105.91,228.49v-1.37h19.69v1.37h-9.07v24.34h-1.58v-24.34h-9.04Z"/>
        <path class="cls-2" d="m152.75,239.97c0,1.87-.28,3.63-.83,5.27-.55,1.64-1.35,3.07-2.39,4.28s-2.32,2.17-3.83,2.86c-1.51.7-3.23,1.04-5.15,1.04s-3.64-.35-5.17-1.04c-1.52-.7-2.81-1.65-3.85-2.86s-1.84-2.64-2.39-4.28c-.55-1.64-.83-3.4-.83-5.27s.28-3.63.83-5.27c.55-1.64,1.35-3.07,2.39-4.28s2.33-2.17,3.85-2.86c1.52-.7,3.25-1.04,5.17-1.04s3.64.35,5.15,1.04c1.51.7,2.79,1.65,3.83,2.86s1.84,2.64,2.39,4.28c.55,1.64.83,3.4.83,5.27Zm-22.86,0c0,1.66.24,3.22.72,4.68.48,1.46,1.18,2.74,2.09,3.83s2.03,1.96,3.35,2.61c1.32.65,2.82.97,4.5.97s3.17-.32,4.48-.97c1.31-.65,2.42-1.52,3.33-2.61s1.61-2.37,2.09-3.83c.48-1.46.72-3.02.72-4.68s-.24-3.22-.72-4.68c-.48-1.46-1.18-2.74-2.09-3.83-.91-1.09-2.02-1.96-3.33-2.61-1.31-.65-2.8-.97-4.48-.97s-3.18.32-4.5.97c-1.32.65-2.44,1.52-3.35,2.61-.91,1.09-1.61,2.37-2.09,3.83-.48,1.46-.72,3.02-.72,4.68Z"/>
        <path class="cls-3" d="m165.6,227.12v20.95h12.53v4.75h-18.18v-25.7h5.65Z"/>
        <path class="cls-3" d="m197.71,227.12l9.61,25.7h-5.87l-1.94-5.72h-9.61l-2.02,5.72h-5.69l9.72-25.7h5.8Zm.32,15.77l-3.24-9.43h-.07l-3.35,9.43h6.66Z"/>
        <path class="cls-3" d="m225.25,227.12c1.22,0,2.34.11,3.35.32s1.87.57,2.59,1.06c.72.49,1.28,1.15,1.67,1.96.4.82.59,1.82.59,3.02,0,1.3-.29,2.38-.88,3.24-.59.86-1.46,1.57-2.61,2.12,1.58.46,2.77,1.25,3.55,2.39.78,1.14,1.17,2.51,1.17,4.12,0,1.3-.25,2.42-.76,3.37s-1.18,1.72-2.03,2.32-1.82,1.04-2.92,1.33-2.21.43-3.37.43h-12.46v-25.7h12.1Zm-.72,10.4c1.01,0,1.84-.24,2.48-.72.65-.48.97-1.26.97-2.34,0-.6-.11-1.09-.32-1.48s-.5-.68-.86-.9c-.36-.22-.77-.37-1.24-.45s-.95-.13-1.46-.13h-5.29v6.01h5.72Zm.32,10.91c.55,0,1.08-.05,1.58-.16.5-.11.95-.29,1.33-.54s.69-.59.92-1.03c.23-.43.34-.98.34-1.66,0-1.32-.37-2.26-1.12-2.83-.74-.56-1.73-.85-2.95-.85h-6.16v7.06h6.05Z"/>
      </g>
    </g>
  </g>
</svg>