<?xml version="1.0" encoding="UTF-8"?>
<svg id="_圖層_2" data-name="圖層 2" xmlns="http://www.w3.org/2000/svg" xmlns:xlink="http://www.w3.org/1999/xlink" viewBox="0 0 562.95 122.28">
  <defs>
    <style>
      .cls-1 {
        fill: url(#_未命名漸層_63);
      }

      .cls-1, .cls-2, .cls-3, .cls-4 {
        stroke-width: 0px;
      }

      .cls-2 {
        fill: #636b70;
      }

      .cls-3 {
        fill: #9bb0b0;
      }

      .cls-4 {
        fill: #fff;
      }
    </style>
    <linearGradient id="_未命名漸層_63" data-name="未命名漸層 63" x1="52.98" y1="6.48" x2="52.98" y2="112.38" gradientUnits="userSpaceOnUse">
      <stop offset="0" stop-color="#ffa774"/>
      <stop offset="1" stop-color="red"/>
    </linearGradient>
  </defs>
  <g id="_圖層_1-2" data-name="圖層 1">
    <g>
      <g>
        <path class="cls-1" d="m53,0L.06,30.57v61.14l52.95,30.57,52.95-30.57V30.57L53,0Zm-.06,0L0,30.57v61.14l52.95,30.57,52.95-30.57V30.57L52.95,0Z"/>
        <polygon class="cls-4" points="52.98 105.35 25.3 89.38 5.32 89.38 15.31 72.08 15.31 40.12 42.99 24.15 52.98 6.84 62.96 24.15 90.64 40.12 90.64 72.08 100.63 89.38 80.65 89.38 52.98 105.35"/>
        <polygon class="cls-3" points="52.98 32.71 79.45 78.56 26.5 78.56 52.98 32.71"/>
      </g>
      <g>
        <path class="cls-2" d="m159.46,41.4v-2.35h33.86v2.35h-15.6v41.84h-2.72v-41.84h-15.54Z"/>
        <path class="cls-2" d="m239.98,61.14c0,3.22-.47,6.24-1.42,9.07-.95,2.83-2.32,5.28-4.12,7.37s-3.99,3.72-6.59,4.92c-2.6,1.2-5.55,1.79-8.85,1.79s-6.26-.6-8.88-1.79c-2.62-1.2-4.83-2.84-6.62-4.92s-3.17-4.54-4.12-7.37c-.95-2.83-1.42-5.85-1.42-9.07s.47-6.24,1.42-9.07c.95-2.83,2.32-5.28,4.12-7.37s4-3.72,6.62-4.92c2.62-1.2,5.58-1.79,8.88-1.79s6.25.6,8.85,1.79c2.6,1.2,4.8,2.84,6.59,4.92s3.17,4.54,4.12,7.37c.95,2.83,1.42,5.85,1.42,9.07Zm-39.3,0c0,2.85.41,5.53,1.24,8.05.82,2.52,2.02,4.71,3.59,6.59s3.49,3.37,5.76,4.49c2.27,1.11,4.85,1.67,7.74,1.67s5.46-.56,7.7-1.67c2.25-1.11,4.16-2.61,5.73-4.49s2.76-4.07,3.59-6.59c.82-2.52,1.24-5.2,1.24-8.05s-.41-5.53-1.24-8.05c-.83-2.52-2.02-4.71-3.59-6.59-1.57-1.88-3.48-3.37-5.73-4.49-2.25-1.11-4.82-1.67-7.7-1.67s-5.47.56-7.74,1.67c-2.27,1.11-4.19,2.61-5.76,4.49-1.57,1.88-2.77,4.07-3.59,6.59-.83,2.52-1.24,5.2-1.24,8.05Z"/>
        <path class="cls-2" d="m251.99,39.04h3.9l17.27,41.16h.12l17.08-41.16h3.9v44.19h-2.72v-40.85h-.12l-16.84,40.85h-2.72l-17.02-40.85h-.12v40.85h-2.72v-44.19Z"/>
        <path class="cls-2" d="m321.38,39.04h2.97l17.46,44.19h-2.91l-5.57-14.17h-21.17l-5.63,14.17h-2.91l17.76-44.19Zm11.08,27.67l-9.47-25.01h-.12l-9.84,25.01h19.43Z"/>
        <path class="cls-2" d="m341.55,41.4v-2.35h33.86v2.35h-15.6v41.84h-2.72v-41.84h-15.54Z"/>
        <path class="cls-2" d="m422.08,61.14c0,3.22-.47,6.24-1.42,9.07-.95,2.83-2.32,5.28-4.12,7.37s-3.99,3.72-6.59,4.92c-2.6,1.2-5.55,1.79-8.85,1.79s-6.26-.6-8.88-1.79c-2.62-1.2-4.83-2.84-6.62-4.92s-3.17-4.54-4.12-7.37c-.95-2.83-1.42-5.85-1.42-9.07s.47-6.24,1.42-9.07c.95-2.83,2.32-5.28,4.12-7.37s4-3.72,6.62-4.92c2.62-1.2,5.58-1.79,8.88-1.79s6.25.6,8.85,1.79c2.6,1.2,4.8,2.84,6.59,4.92s3.17,4.54,4.12,7.37c.95,2.83,1.42,5.85,1.42,9.07Zm-39.3,0c0,2.85.41,5.53,1.24,8.05.82,2.52,2.02,4.71,3.59,6.59s3.49,3.37,5.76,4.49c2.27,1.11,4.85,1.67,7.74,1.67s5.46-.56,7.7-1.67c2.25-1.11,4.16-2.61,5.73-4.49s2.76-4.07,3.59-6.59c.82-2.52,1.24-5.2,1.24-8.05s-.41-5.53-1.24-8.05c-.83-2.52-2.02-4.71-3.59-6.59-1.57-1.88-3.48-3.37-5.73-4.49-2.25-1.11-4.82-1.67-7.7-1.67s-5.47.56-7.74,1.67c-2.27,1.11-4.19,2.61-5.76,4.49-1.57,1.88-2.77,4.07-3.59,6.59-.83,2.52-1.24,5.2-1.24,8.05Z"/>
        <path class="cls-3" d="m444.18,39.04v36.02h21.54v8.17h-31.26v-44.19h9.72Z"/>
        <path class="cls-3" d="m499.38,39.04l16.53,44.19h-10.09l-3.34-9.84h-16.52l-3.47,9.84h-9.78l16.71-44.19h9.96Zm.56,27.11l-5.57-16.22h-.12l-5.76,16.22h11.45Z"/>
        <path class="cls-3" d="m546.73,39.04c2.1,0,4.02.19,5.76.56s3.22.98,4.46,1.83c1.24.85,2.2,1.97,2.88,3.37.68,1.4,1.02,3.14,1.02,5.2,0,2.23-.51,4.09-1.52,5.57-1.01,1.49-2.51,2.7-4.49,3.65,2.72.78,4.75,2.16,6.1,4.12,1.34,1.96,2.01,4.32,2.01,7.09,0,2.23-.43,4.16-1.3,5.79s-2.03,2.96-3.5,3.99-3.14,1.79-5.01,2.29-3.81.74-5.79.74h-21.42v-44.19h20.8Zm-1.24,17.89c1.73,0,3.16-.41,4.27-1.24,1.11-.83,1.67-2.17,1.67-4.02,0-1.03-.19-1.88-.56-2.54s-.87-1.18-1.49-1.55c-.62-.37-1.33-.63-2.14-.77s-1.64-.22-2.51-.22h-9.1v10.34h9.84Zm.56,18.75c.95,0,1.86-.09,2.72-.28.87-.19,1.63-.5,2.29-.93s1.19-1.02,1.58-1.76c.39-.74.59-1.69.59-2.85,0-2.27-.64-3.89-1.92-4.86-1.28-.97-2.97-1.46-5.08-1.46h-10.58v12.13h10.4Z"/>
      </g>
    </g>
  </g>
</svg>