<svg id="Layer_1" height="512" viewBox="0 0 128 128" width="512" xmlns="http://www.w3.org/2000/svg" data-name="Layer 1"><path d="m80.085 19.887a30.081 30.081 0 0 0 -8.489.1l-2.6.4v-18.637h-9.996v18.642l-2.6-.4a30.081 30.081 0 0 0 -8.489-.1l-23.911 3.108 9.812 5.746a30.084 30.084 0 0 0 18.688 3.921 48.409 48.409 0 0 0 11 30.727l.5.606.5-.606a48.409 48.409 0 0 0 11-30.727 30.084 30.084 0 0 0 18.688-3.921l9.812-5.746z" fill="#54b88b"/><path d="m94.008 28.842a30.079 30.079 0 0 1 -18.508 3.825 48.409 48.409 0 0 1 -11 30.727l-.5.606-.5-.606a48.409 48.409 0 0 1 -11-30.727 30.079 30.079 0 0 1 -18.508-3.825 50.394 50.394 0 0 0 23.336 97.14 64.549 64.549 0 0 1 13.342 0 50.4 50.4 0 0 0 23.336-97.14z" fill="#ff6e6e"/></svg>